<?xml version="1.0" encoding="UTF-8" standalone="no"?>
<!DOCTYPE svg PUBLIC "-//W3C//DTD SVG 1.1//EN" "http://www.w3.org/Graphics/SVG/1.1/DTD/svg11.dtd">
<svg xmlns="http://www.w3.org/2000/svg" version="1.1" viewBox="0.00 0.00 500.00 500.00">
<g stroke-width="2.00" fill="none" stroke-linecap="butt">
<path stroke="#9a6af3" vector-effect="non-scaling-stroke" d="
  M 174.43 300.11
  Q 173.04 306.38 174.94 312.57"
/>
<path stroke="#9a6af3" vector-effect="non-scaling-stroke" d="
  M 367.99 413.94
  L 329.45 414.63"
/>
</g>
<path fill="#5e17eb" d="
  M 174.43 300.11
  Q 173.04 306.38 174.94 312.57
  C 176.22 338.50 183.71 367.66 210.10 377.18
  C 236.25 386.61 266.76 378.95 287.83 361.56
  Q 305.24 347.19 320.05 328.59
  C 323.24 324.59 322.01 322.56 322.01 318.10
  Q 321.98 212.30 322.01 106.51
  Q 322.01 106.00 322.51 106.00
  L 367.25 106.00
  A 0.75 0.74 -90.0 0 1 367.99 106.75
  L 367.99 413.94
  L 329.45 414.63
  L 325.61 366.70
  A 0.96 0.96 0.0 0 0 323.95 366.12
  C 310.43 380.62 298.27 393.24 281.54 404.05
  C 254.11 421.80 219.04 427.08 188.01 417.50
  C 141.67 403.20 128.08 355.50 128.04 312.32
  Q 127.95 209.27 128.02 106.33
  A 0.33 0.33 0.0 0 1 128.35 106.00
  L 173.23 106.00
  A 0.73 0.73 0.0 0 1 173.96 106.73
  L 174.43 300.11
  Z"
/>
<path fill="#d6bcfa" d="
  M 227.60 260.16
  C 198.18 237.98 209.46 192.32 246.80 188.74
  C 264.60 187.03 282.19 198.71 287.36 216.13
  C 292.28 232.70 286.53 249.37 272.61 259.84
  A 0.99 0.98 -33.8 0 0 272.35 261.12
  L 300.72 310.23
  A 0.51 0.51 0.0 0 1 300.28 311.00
  L 199.70 311.00
  A 0.48 0.48 0.0 0 1 199.28 310.28
  L 227.77 261.01
  Q 228.07 260.51 227.60 260.16
  Z"
/>
<path fill="#d6bcfa" d="
  M 174.43 300.11
  L 174.94 312.57
  Q 173.04 306.38 174.43 300.11
  Z"
/>
<path fill="#d6bcfa" d="
  M 367.99 413.94
  Q 368.09 414.20 367.98 414.50
  Q 367.80 415.00 367.27 415.00
  L 329.45 414.63
  L 367.99 413.94
  Z"
/>
</svg>
